<!-- icon666.com - MILLIONS vector ICONS FREE --><svg clip-rule="evenodd" fill-rule="evenodd" image-rendering="optimizeQuality" shape-rendering="geometricPrecision" text-rendering="geometricPrecision" viewBox="0 0 28444 28444" xmlns="http://www.w3.org/2000/svg"><g id="Layer_x0020_1"><g id="_229953304" fill-rule="nonzero"><path d="m15796 6702c471 98 928 240 1365 421 444 184 867 409 1265 669l2213-1761 233-185 210 210 1307 1307 210 210-185 233-1761 2213c260 398 485 821 669 1265 181 436 323 893 421 1365l2808 319 297 34v297 1849 297l-297 34-2808 319c-98 472-240 929-421 1365-184 444-409 867-669 1265l1761 2213 185 233-210 210-1307 1307-210 210-233-185-2213-1761c-398 261-821 485-1265 669-437 181-893 323-1365 421l-319 2807-34 297h-297-1849-297l-34-297-319-2807c-471-98-928-240-1365-421-444-184-867-409-1265-669l-2213 1761-233 185-210-210-1307-1307-210-210 185-233 1761-2213c-260-398-485-821-669-1265-181-436-323-893-421-1365l-2808-319-297-34v-297-1849-297l297-34 2808-319c98-472 240-929 421-1365 184-444 409-867 669-1265l-1761-2213-185-233 210-210 1307-1307 210-210 233 185 2213 1761c398-261 821-485 1265-669 437-181 893-323 1365-421l319-2807 34-297h297 1849 297l34 297zm1110 1036c-466-193-958-337-1470-427l-245-43-28-249-313-2755h-1255l-313 2755-28 249-245 43c-512 89-1004 234-1470 427-477 198-927 446-1344 739l-204 143-195-155-2171-1728-887 887 1728 2171 155 195-143 204c-293 417-542 867-739 1344-193 466-338 958-427 1469l-43 246-249 28-2755 313v1255l2755 313 249 28 43 246c89 511 233 1002 427 1469 198 477 446 927 739 1344l143 204-155 195-1728 2171 887 887 2171-1728 195-155 204 143c417 293 867 542 1344 739 466 193 958 337 1470 427l245 43 28 249 313 2755h1255l313-2755 28-249 245-43c512-89 1004-234 1470-427 477-198 927-446 1344-739l204-143 195 155 2171 1728 887-887-1728-2171-155-195 143-204c293-417 542-867 739-1344 193-466 338-958 427-1469l43-246 249-28 2755-313v-1255l-2755-313-249-28-43-246c-89-511-233-1002-427-1469-198-477-446-927-739-1344l-143-204 155-195 1728-2171-887-887-2171 1728-195 155-204-143c-417-293-867-542-1344-739z"></path><path d="m14222 9168c1396 0 2659 566 3574 1480 915 915 1480 2178 1480 3574 0 719-151 1404-423 2025-283 645-696 1220-1205 1690-459 423-996 763-1588 994-571 223-1191 346-1838 346s-1268-123-1838-346c-592-231-1129-571-1588-994-510-470-922-1045-1205-1690-272-621-423-1306-423-2025 0-1396 566-2659 1480-3574 915-915 2178-1480 3574-1480zm3103 1952c-794-794-1891-1285-3103-1285s-2309 491-3103 1285-1285 1891-1285 3103c0 627 131 1222 366 1759 169 385 391 741 659 1060 152-406 375-777 655-1099 284-326 625-601 1007-809-173-162-323-348-445-554-220-372-346-805-346-1267 0-688 279-1312 730-1763s1074-730 1763-730c688 0 1312 279 1763 730s730 1074 730 1763c0 462-126 895-346 1267-121 205-272 392-445 554 166 90 324 193 473 306 312 239 583 526 802 851 134 199 250 414 344 643 15 36 29 71 42 108 267-318 490-675 659-1060 235-537 366-1132 366-1759 0-1212-491-2309-1285-3103zm-269 6453c-34-133-77-262-128-386-75-182-170-358-282-523-180-266-401-501-654-695-215-165-453-300-709-401-139 66-287 119-442 159-202 52-409 79-620 79-210 0-418-28-620-79-155-40-303-93-442-159-444 175-836 455-1144 809-295 340-514 747-628 1195 366 310 784 561 1238 739 494 193 1032 299 1596 299s1103-106 1596-299c454-177 872-429 1238-739zm-1954-2658c287-158 527-391 694-673 160-271 252-589 252-928 0-504-204-961-535-1291-330-330-787-535-1291-535s-961 204-1291 535c-330 330-535 787-535 1291 0 340 92 657 252 928 167 282 407 515 694 673 135 74 277 131 424 169 142 36 294 56 456 56 161 0 314-19 456-56 147-38 290-95 424-169z"></path></g></g></svg>